<?xml version="1.0" encoding="utf-8"?>
<!-- Generator: Adobe Illustrator 19.0.0, SVG Export Plug-In . SVG Version: 6.00 Build 0)  -->
<svg version="1.1" id="Capa_1" xmlns="http://www.w3.org/2000/svg" xmlns:xlink="http://www.w3.org/1999/xlink" x="0px" y="0px"
	 viewBox="-379 181 200 200" style="enable-background:new -379 181 200 200;" xml:space="preserve">
<style type="text/css">
	.st0{fill:#003046;}
</style>
<g>
	<g>
		<path class="st0" d="M-279,181c-44.2,0-80.2,36-80.2,80.2c0,5,0.5,10.1,1.4,15.1c0,0.3,0.2,1.2,0.5,2.7c1.2,5.4,3,10.7,5.4,15.8
			c8.6,20.3,27.6,51.6,69.3,85c1,0.8,2.3,1.3,3.6,1.3c1.3,0,2.5-0.4,3.6-1.3c41.6-33.5,60.7-64.7,69.3-85c2.3-5.1,4.2-10.4,5.4-15.8
			c0.3-1.5,0.5-2.4,0.5-2.7c0.9-4.9,1.4-10,1.4-15.1C-198.9,217-234.8,181-279,181z M-211.5,274.2c0,0.1,0,0.2,0,0.3
			c0,0.2-0.2,0.8-0.4,1.8c0,0,0,0,0,0.1c-1,4.7-2.6,9.3-4.7,13.7c0,0,0,0.1-0.1,0.2c-7.8,18.6-25,46.9-62.4,77.8
			c-37.4-30.9-54.6-59.2-62.4-77.8c0,0,0-0.1-0.1-0.2c-2-4.4-3.6-9-4.7-13.7c0,0,0,0,0-0.1c-0.3-1-0.3-1.6-0.4-1.8
			c0-0.1,0-0.2,0-0.3c-0.8-4.3-1.3-8.7-1.3-13.1c0-37.9,30.9-68.8,68.8-68.8s68.8,30.9,68.8,68.8
			C-210.2,265.6-210.6,270-211.5,274.2z"/>
		<path class="st0" d="M-279,211.1c-28.1,0-50.9,22.9-50.9,50.9s22.9,50.9,50.9,50.9c28.1,0,50.9-22.9,50.9-50.9
			S-251,211.1-279,211.1z M-279,301.6c-21.8,0-39.6-17.8-39.6-39.6s17.8-39.6,39.6-39.6c21.8,0,39.6,17.8,39.6,39.6
			S-257.2,301.6-279,301.6z"/>
	</g>
</g>
</svg>
